<svg version="1.1" id="Layer_1" xmlns="http://www.w3.org/2000/svg" xmlns:xlink="http://www.w3.org/1999/xlink" x="0px" y="0px" width="54" viewBox="0 0 487 487" enable-background="new 0 0 487 487" xml:space="preserve" height="54">
<path fill="#000000" opacity="1.000000" stroke="none" d="
M488.000000,428.000000 
	C488.000000,447.987793 488.000000,467.975586 488.000000,487.981689 
	C325.777954,487.981689 163.555893,487.981689 1.000000,487.981689 
	C1.000000,432.645691 1.000000,377.290680 1.291010,321.195984 
	C2.318064,321.120972 3.266426,321.656921 3.759027,322.469238 
	C15.493427,341.820007 27.146322,361.220215 38.882236,380.570038 
	C51.211300,400.897888 63.672688,421.145782 75.920105,441.522461 
	C77.964478,444.923767 80.361145,446.074158 84.321060,446.062592 
	C131.982315,445.923187 179.644119,445.972412 227.305771,445.972473 
	C229.054825,445.972504 230.803879,445.972473 233.244507,445.972473 
	C232.546829,444.602631 232.313065,444.048859 232.000534,443.543823 
	C223.704529,430.138763 215.338654,416.776489 207.110672,403.329834 
	C190.416168,376.046600 173.875916,348.668457 157.037521,321.474640 
	C155.046173,318.258636 155.151352,316.010254 156.950638,313.046356 
	C161.459991,305.618256 165.697052,298.025330 170.171997,290.575836 
	C189.938095,257.670868 209.757523,224.797928 229.514755,191.887665 
	C230.277481,190.617203 230.600296,189.082626 231.164871,187.572754 
	C227.874222,187.738892 225.289612,187.981918 222.704865,187.983185 
	C175.543167,188.006271 128.381454,188.002777 81.219742,187.993988 
	C78.605530,187.993500 76.573105,187.914108 74.841904,191.008759 
	C65.472000,207.758194 55.668423,224.264832 46.030876,240.864777 
	C32.935738,263.420135 19.891657,286.005280 6.721503,308.516724 
	C5.147956,311.206329 2.923014,313.514832 1.000001,316.000000 
	C1.000000,211.037903 1.000000,106.075813 1.000000,1.056862 
	C163.236801,1.056862 325.473633,1.056862 488.000000,1.056862 
	C488.000000,136.021301 488.000000,271.042786 487.686218,406.773560 
	C486.568359,406.279510 485.703552,405.111969 484.969604,403.867279 
	C478.137268,392.280182 465.794006,387.430847 452.284088,391.052307 
	C441.745300,393.877289 432.595306,406.442505 433.060516,418.132904 
	C433.519958,429.678314 440.444702,441.217682 455.429932,444.620575 
	C465.935150,447.006104 478.735413,442.467773 485.087067,430.845856 
	C485.709595,429.706818 487.012756,428.939728 488.000000,428.000000 
M324.499359,56.954239 
	C322.388428,53.437275 319.822113,50.105774 318.293213,46.351765 
	C316.729492,42.512253 314.314850,41.898373 310.626831,41.927673 
	C291.134338,42.082531 271.639069,41.878647 252.146469,42.027912 
	C222.711548,42.253311 193.277084,42.612068 163.846344,43.134811 
	C162.012894,43.167377 159.450363,44.664787 158.516449,46.243469 
	C149.331146,61.770378 140.444214,77.473442 131.422806,93.097740 
	C122.232361,109.014809 112.972748,124.891930 103.768745,140.801193 
	C97.887665,150.966751 92.052582,161.158920 85.980515,171.715286 
	C87.145798,171.834412 87.918533,171.973099 88.693054,171.983917 
	C113.460739,172.330246 138.227707,172.788269 162.996689,172.964142 
	C186.487839,173.130951 209.981232,173.035492 233.473282,172.952530 
	C236.191849,172.942932 237.806717,173.513107 239.216980,176.204605 
	C242.178299,181.856277 245.768768,187.179276 249.119980,192.625504 
	C262.003723,213.563538 274.909637,234.487946 287.778503,255.435120 
	C297.101044,270.609741 306.378204,285.812225 315.995300,301.524658 
	C322.214233,290.977142 328.128876,281.012909 333.979126,271.010986 
	C352.621674,239.138626 371.218658,207.239563 389.899139,175.389450 
	C391.930573,171.925842 391.978790,168.953995 389.825806,165.419479 
	C381.379272,151.553116 373.235199,137.503021 364.874451,123.583824 
	C351.627167,101.529343 338.296082,79.525185 324.499359,56.954239 
M369.910828,245.323685 
	C369.261078,246.273422 368.551605,247.188110 367.970367,248.178101 
	C355.338867,269.692932 342.614929,291.155090 330.226807,312.809296 
	C328.540131,315.757599 326.719116,316.033020 323.968750,316.030548 
	C277.968842,315.989227 231.968857,315.990387 185.968933,316.030762 
	C182.458115,316.033844 178.947632,316.401672 174.798126,316.636017 
	C179.926926,325.369171 184.921280,333.931274 189.971222,342.460480 
	C201.171127,361.376770 212.378021,380.289001 223.622025,399.179077 
	C232.510620,414.112061 241.380844,429.057556 250.495819,443.851746 
	C251.453201,445.405640 254.008896,446.846497 255.825317,446.849243 
	C263.938049,446.861542 272.049438,446.130402 280.165344,446.043915 
	C294.830353,445.887634 309.499268,446.113068 324.164612,445.974884 
	C350.107452,445.730438 376.049805,445.383575 401.988525,444.881775 
	C403.657837,444.849457 405.990601,443.542969 406.839355,442.125458 
	C416.109009,426.643799 425.102020,410.996979 434.252838,395.443634 
	C449.642517,369.286285 465.107697,343.173340 480.452301,316.989655 
	C481.001312,316.052826 481.102509,314.272614 480.576050,313.377319 
	C475.917572,305.455414 471.038452,297.663757 466.283569,289.797913 
	C449.988892,262.842163 433.716370,235.873062 417.439667,208.906479 
	C413.010345,201.568192 408.596008,194.220840 403.939209,186.486313 
	C392.386322,206.325455 381.240875,225.464981 369.910828,245.323685 
z"></path>
<path fill="#CB1F1F" opacity="1.000000" stroke="none" d="
M1.000001,316.416656 
	C2.923014,313.514832 5.147956,311.206329 6.721503,308.516724 
	C19.891657,286.005280 32.935738,263.420135 46.030876,240.864777 
	C55.668423,224.264832 65.472000,207.758194 74.841904,191.008759 
	C76.573105,187.914108 78.605530,187.993500 81.219742,187.993988 
	C128.381454,188.002777 175.543167,188.006271 222.704865,187.983185 
	C225.289612,187.981918 227.874222,187.738892 231.164871,187.572754 
	C230.600296,189.082626 230.277481,190.617203 229.514755,191.887665 
	C209.757523,224.797928 189.938095,257.670868 170.171997,290.575836 
	C165.697052,298.025330 161.459991,305.618256 156.950638,313.046356 
	C155.151352,316.010254 155.046173,318.258636 157.037521,321.474640 
	C173.875916,348.668457 190.416168,376.046600 207.110672,403.329834 
	C215.338654,416.776489 223.704529,430.138763 232.000534,443.543823 
	C232.313065,444.048859 232.546829,444.602631 233.244507,445.972473 
	C230.803879,445.972473 229.054825,445.972504 227.305771,445.972473 
	C179.644119,445.972412 131.982315,445.923187 84.321060,446.062592 
	C80.361145,446.074158 77.964478,444.923767 75.920105,441.522461 
	C63.672688,421.145782 51.211300,400.897888 38.882236,380.570038 
	C27.146322,361.220215 15.493427,341.820007 3.759027,322.469238 
	C3.266426,321.656921 2.318064,321.120972 1.291010,320.728149 
	C1.000000,319.611115 1.000000,318.222198 1.000001,316.416656 
z"></path>
<path fill="#CB1F1F" opacity="1.000000" stroke="none" d="
M488.000000,427.531464 
	C487.012756,428.939728 485.709595,429.706818 485.087067,430.845856 
	C478.735413,442.467773 465.935150,447.006104 455.429932,444.620575 
	C440.444702,441.217682 433.519958,429.678314 433.060516,418.132904 
	C432.595306,406.442505 441.745300,393.877289 452.284088,391.052307 
	C465.794006,387.430847 478.137268,392.280182 484.969604,403.867279 
	C485.703552,405.111969 486.568359,406.279510 487.686218,407.241394 
	C488.000000,413.687653 488.000000,420.375275 488.000000,427.531464 
M443.398560,428.948425 
	C444.390625,430.252228 445.202698,431.758545 446.404358,432.826508 
	C453.588959,439.211823 464.533264,440.092987 472.497192,434.719452 
	C479.162231,430.222382 483.821167,421.273132 480.726654,411.359863 
	C478.429779,404.001740 471.653961,397.654236 464.877441,397.025787 
	C455.725372,396.177032 447.649933,398.249969 442.841705,406.813812 
	C438.894714,413.843689 438.943237,421.189819 443.398560,428.948425 
z"></path>
<path fill="#CB1F1F" opacity="1.000000" stroke="none" d="
M324.749908,57.226986 
	C338.296082,79.525185 351.627167,101.529343 364.874451,123.583824 
	C373.235199,137.503021 381.379272,151.553116 389.825806,165.419479 
	C391.978790,168.953995 391.930573,171.925842 389.899139,175.389450 
	C371.218658,207.239563 352.621674,239.138626 333.979126,271.010986 
	C328.128876,281.012909 322.214233,290.977142 315.995300,301.524658 
	C306.378204,285.812225 297.101044,270.609741 287.778503,255.435120 
	C274.909637,234.487946 262.003723,213.563538 249.119980,192.625504 
	C245.768768,187.179276 242.178299,181.856277 239.216980,176.204605 
	C237.806717,173.513107 236.191849,172.942932 233.473282,172.952530 
	C209.981232,173.035492 186.487839,173.130951 162.996689,172.964142 
	C138.227707,172.788269 113.460739,172.330246 88.693054,171.983917 
	C87.918533,171.973099 87.145798,171.834412 85.980515,171.715286 
	C92.052582,161.158920 97.887665,150.966751 103.768745,140.801193 
	C112.972748,124.891930 122.232361,109.014809 131.422806,93.097740 
	C140.444214,77.473442 149.331146,61.770378 158.516449,46.243469 
	C159.450363,44.664787 162.012894,43.167377 163.846344,43.134811 
	C193.277084,42.612068 222.711548,42.253311 252.146469,42.027912 
	C271.639069,41.878647 291.134338,42.082531 310.626831,41.927673 
	C314.314850,41.898373 316.729492,42.512253 318.293213,46.351765 
	C319.822113,50.105774 322.388428,53.437275 324.749908,57.226986 
z"></path>
<path fill="#CB1F1F" opacity="1.000000" stroke="none" d="
M370.003113,244.964096 
	C381.240875,225.464981 392.386322,206.325455 403.939209,186.486313 
	C408.596008,194.220840 413.010345,201.568192 417.439667,208.906479 
	C433.716370,235.873062 449.988892,262.842163 466.283569,289.797913 
	C471.038452,297.663757 475.917572,305.455414 480.576050,313.377319 
	C481.102509,314.272614 481.001312,316.052826 480.452301,316.989655 
	C465.107697,343.173340 449.642517,369.286285 434.252838,395.443634 
	C425.102020,410.996979 416.109009,426.643799 406.839355,442.125458 
	C405.990601,443.542969 403.657837,444.849457 401.988525,444.881775 
	C376.049805,445.383575 350.107452,445.730438 324.164612,445.974884 
	C309.499268,446.113068 294.830353,445.887634 280.165344,446.043915 
	C272.049438,446.130402 263.938049,446.861542 255.825317,446.849243 
	C254.008896,446.846497 251.453201,445.405640 250.495819,443.851746 
	C241.380844,429.057556 232.510620,414.112061 223.622025,399.179077 
	C212.378021,380.289001 201.171127,361.376770 189.971222,342.460480 
	C184.921280,333.931274 179.926926,325.369171 174.798126,316.636017 
	C178.947632,316.401672 182.458115,316.033844 185.968933,316.030762 
	C231.968857,315.990387 277.968842,315.989227 323.968750,316.030548 
	C326.719116,316.033020 328.540131,315.757599 330.226807,312.809296 
	C342.614929,291.155090 355.338867,269.692932 367.970367,248.178101 
	C368.551605,247.188110 369.261078,246.273422 370.003113,244.964096 
z"></path>
<path fill="#000000" opacity="1.000000" stroke="none" d="
M443.149902,428.655334 
	C438.943237,421.189819 438.894714,413.843689 442.841705,406.813812 
	C447.649933,398.249969 455.725372,396.177032 464.877441,397.025787 
	C471.653961,397.654236 478.429779,404.001740 480.726654,411.359863 
	C483.821167,421.273132 479.162231,430.222382 472.497192,434.719452 
	C464.533264,440.092987 453.588959,439.211823 446.404358,432.826508 
	C445.202698,431.758545 444.390625,430.252228 443.149902,428.655334 
M468.308990,403.866425 
	C467.402954,403.525757 466.509857,403.144562 465.588867,402.850769 
	C458.077881,400.454926 450.496582,404.087311 448.036835,411.245148 
	C445.118286,419.738129 448.544006,429.319336 455.456665,431.997375 
	C463.562439,435.137634 470.056000,432.060120 473.917480,422.895660 
	C471.574524,422.231110 469.285278,421.581818 466.751709,420.863220 
	C466.254913,422.034393 466.101166,423.402161 465.346100,423.968872 
	C463.741180,425.173523 461.465363,427.084564 460.118683,426.655090 
	C458.140198,426.024048 455.876923,423.853058 455.290955,421.876801 
	C454.476013,419.128296 454.551056,415.805267 455.301758,413.012146 
	C455.803741,411.144318 457.887573,409.130676 459.744781,408.391602 
	C461.060791,407.867920 464.176086,408.866302 464.768951,410.047913 
	C467.238251,414.969330 469.941925,412.958099 473.773193,410.843414 
	C471.957977,408.437897 470.424255,406.405334 468.308990,403.866425 
z"></path>
<path fill="#CB1F1F" opacity="1.000000" stroke="none" d="
M468.599731,404.119598 
	C470.424255,406.405334 471.957977,408.437897 473.773193,410.843414 
	C469.941925,412.958099 467.238251,414.969330 464.768951,410.047913 
	C464.176086,408.866302 461.060791,407.867920 459.744781,408.391602 
	C457.887573,409.130676 455.803741,411.144318 455.301758,413.012146 
	C454.551056,415.805267 454.476013,419.128296 455.290955,421.876801 
	C455.876923,423.853058 458.140198,426.024048 460.118683,426.655090 
	C461.465363,427.084564 463.741180,425.173523 465.346100,423.968872 
	C466.101166,423.402161 466.254913,422.034393 466.751709,420.863220 
	C469.285278,421.581818 471.574524,422.231110 473.917480,422.895660 
	C470.056000,432.060120 463.562439,435.137634 455.456665,431.997375 
	C448.544006,429.319336 445.118286,419.738129 448.036835,411.245148 
	C450.496582,404.087311 458.077881,400.454926 465.588867,402.850769 
	C466.509857,403.144562 467.402954,403.525757 468.599731,404.119598 
z"></path>
</svg>